<svg width="90" height="101" viewBox="0 0 90 101" fill="none" xmlns="http://www.w3.org/2000/svg">
<g id="22" clip-path="url(#clip0_12_475)">
<path id="Vector" d="M71.6523 45.8347C73.4701 47.5645 75.1338 49.1693 76.7975 50.774C77.1734 51.13 77.5243 51.5167 77.7384 51.9461C78.1918 52.7738 78.0809 53.604 77.5174 54.425C76.7537 55.4928 75.7934 56.2988 74.673 56.9238C73.341 57.6839 72.003 58.3882 70.6284 59.0116C67.2632 60.5767 63.8247 61.9801 60.3128 63.2219C53.4199 65.607 46.5829 67.9863 39.7325 70.5081C36.4691 71.6957 33.3522 73.2066 30.1563 74.5001C26.9353 75.8243 23.6526 77.0986 20.4316 78.4229C18.6469 79.1738 16.919 78.846 15.2678 78.1715C13.3506 77.3837 12.4972 75.158 13.2543 73.2159C13.8345 71.7438 14.7791 70.5161 16.142 69.781C18.6003 68.4517 21.1319 67.2841 23.6635 66.1164C24.4721 65.7497 25.3657 65.6564 26.2826 65.7866C27.6579 65.9817 28.0013 66.5669 27.4227 67.7847C27.3785 67.9022 27.3035 67.9947 27.1651 68.2915C27.6311 68.1581 27.9353 68.0982 28.2338 67.9823C33.001 66.3272 37.6833 64.3988 42.2556 62.2277C49.4094 58.8274 56.7217 55.8621 64.0588 52.866C65.1408 52.4143 66.2653 52.0993 67.3781 51.6726C67.6766 51.5568 67.95 51.4718 68.3293 51.3193C67.2999 50.3823 66.363 49.5203 65.4571 48.6834C65.2046 48.4275 64.9253 48.4566 64.571 48.5783C63.7258 48.8642 62.8805 49.15 62.0353 49.4358C60.2139 50.1059 58.5977 49.7665 57.1865 48.4177C56.7798 48.0367 56.3172 47.6616 55.9855 47.1881C55.0387 45.9602 55.303 44.4364 56.5618 43.5146C56.9294 43.2504 57.3337 43.0671 57.738 42.8837C64.9193 40.0168 72.0448 37.1558 79.2319 34.3447C81.3209 33.5338 83.4832 32.8847 85.6339 32.1238C85.9323 32.0079 86.2057 31.9229 86.585 31.7704C86.1782 31.3895 85.8698 31.1394 85.5806 30.8026C84.9097 30.054 84.8589 29.2971 85.3166 28.5436C85.68 27.9693 86.1402 27.7801 86.8087 27.9644C87.2171 28.0911 87.6081 28.0503 88.0048 28.0654C88.4575 28.0746 89.0334 28.1838 89.4035 28.4839C90.9589 29.5918 92.4275 30.6806 93.877 31.856C94.4012 32.2812 94.8813 32.8239 95.3056 33.3724C96.1849 34.4944 96.0281 35.6964 94.8694 36.4949C94.265 36.925 93.5681 37.28 92.8287 37.4983C90.2755 38.1883 87.7764 39.1267 85.3256 40.2576C81.1768 42.1587 76.9797 43.8671 72.7093 45.4139C72.4108 45.5297 72.1124 45.6455 71.6523 45.8347Z" fill="black"/>
<path id="Vector_2" d="M38.3462 40.1939C37.371 39.5053 36.4575 38.8667 35.5381 38.1723C34.0753 37.1394 32.5816 36.0815 31.1438 35.0177C30.8104 34.7985 30.5329 34.5734 30.2495 34.2924C29.1467 33.1937 29.2436 31.6875 30.4406 30.7157C30.5715 30.6173 30.7024 30.519 30.8391 30.4765C35.178 27.9628 39.191 25.0315 43.1673 22.0193C47.5921 18.7063 52.0477 15.4182 56.4784 12.161C57.3445 11.5343 58.2415 10.9325 59.1076 10.3058C60.2913 9.47646 61.4833 9.26732 62.7553 10.0943C64.0889 10.9713 65.4667 11.7308 66.7753 12.6387C72.6016 16.8011 78.6529 20.686 84.6984 24.515C86.2112 25.4862 87.7299 26.5133 89.1927 27.5462C89.7111 27.9155 90.1796 28.3465 90.5421 28.845C91.489 30.0729 91.0821 31.5833 89.7441 32.2875C89.3148 32.5017 88.8489 32.6351 88.3829 32.7684C87.1275 33.1817 85.8971 33.5642 84.6726 34.0026C81.3033 35.2577 77.9647 36.5377 74.5896 37.737C71.2144 38.9362 67.8084 40.1104 64.4024 41.2846C63.4204 41.613 62.4635 41.9105 61.5065 42.208C61.2331 42.293 60.9347 42.4088 60.4995 42.5672C60.8079 42.8173 60.993 42.9673 61.178 43.1174C63.7127 45.224 66.2724 47.2998 68.807 49.4063C68.9921 49.5564 69.1829 49.7623 69.343 49.9432C70.3148 51.1403 70.0254 52.6948 68.6934 53.4549C68.214 53.7308 67.6364 53.8758 67.0837 53.99C64.4688 54.6299 61.848 55.214 59.239 55.9099C58.0028 56.2365 56.7533 56.7057 55.5654 57.2249C49.2159 59.9485 42.9223 62.6662 36.6095 65.4706C30.1042 68.3234 23.6105 71.2878 17.136 74.1656C16.6509 74.3856 16.1349 74.5806 15.5764 74.6389C14.211 74.8097 13.2741 73.9477 13.0784 72.6132C12.9484 71.6387 13.1402 70.7719 13.7096 70.0067C14.7425 68.5439 15.7696 67.0252 16.9508 65.6316C21.1449 60.6489 25.4314 55.7412 29.6255 50.7586C32.4632 47.3854 35.2392 43.9622 38.0461 40.564C38.1828 40.5215 38.252 40.3731 38.3462 40.1939Z" fill="#EA552B"/>
</g>
<defs>
<clipPath id="clip0_12_475">
<rect width="54" height="86.1617" fill="white" transform="translate(55.2585 0.0090332) rotate(39.0401)"/>
</clipPath>
</defs>
</svg>
