<svg width="116" height="50" viewBox="0 0 116 50" fill="none" xmlns="http://www.w3.org/2000/svg">
<path d="M0.00249982 0V13.66L39.2525 13.6588V0H0.00249982ZM33.8462 3.68125L34.2137 3.68875C34.2862 3.69125 34.345 3.755 34.345 3.81375V9.905L33.845 9.475C33.8662 9.4375 33.8825 9.4 33.8825 9.35V3.77875C33.8763 3.74625 33.8675 3.72125 33.8575 3.6975L33.8462 3.68125ZM34.1937 10.0062H31.0963C31.0822 9.92294 31.0504 9.84364 31.0029 9.77374C30.9555 9.70385 30.8935 9.64501 30.8212 9.60125H33.6062C33.636 9.60286 33.6657 9.59684 33.6925 9.58375L34.1937 10.0062ZM27.51 3.77375C27.5851 3.72053 27.6723 3.68701 27.7638 3.67625C27.7913 3.67625 27.8262 3.67125 27.8575 3.67125H27.885C28.4475 3.67125 29.1162 3.7125 29.635 3.90625C30.1537 4.1 30.5025 4.4225 30.5037 5.03125H30.6912C30.695 4.43375 31.0437 4.11875 31.5637 3.90625C32.0637 3.71125 32.7512 3.67125 33.3075 3.67125H33.37C33.3975 3.67125 33.42 3.67625 33.445 3.67625C33.4998 3.68487 33.5534 3.69955 33.605 3.72C33.6388 3.7375 33.6637 3.75375 33.6775 3.76375L33.685 9.335C33.685 9.38125 33.6475 9.41625 33.61 9.41625H27.585C27.5437 9.41625 27.51 9.37875 27.51 9.335V3.7725V3.77375ZM27.585 9.6025H30.2125C30.07 9.69 29.9662 9.8525 29.9375 10.0075H26.9712C26.9587 10.0075 26.9513 10.005 26.9388 10.005L27.4562 9.5675C27.4962 9.59 27.54 9.605 27.585 9.605V9.6025ZM26.8513 3.8025C26.8513 3.75625 26.905 3.69375 26.9787 3.6775L27.35 3.67C27.3353 3.69525 27.3264 3.72341 27.3237 3.7525V9.32375C27.3237 9.35375 27.3288 9.38375 27.3388 9.40875L26.8387 9.825V3.7875L26.8513 3.8025ZM23.3225 3.7C23.3912 3.7 23.4525 3.77125 23.4525 3.825V9.875L22.955 9.4575C22.9693 9.42697 22.977 9.39373 22.9775 9.36V3.785C22.9712 3.7525 22.9625 3.7325 22.9525 3.71L23.3212 3.71125L23.3225 3.7ZM23.3425 10.02H20.2025C20.191 9.93718 20.162 9.85777 20.1174 9.78706C20.0728 9.71636 20.0136 9.65599 19.9437 9.61H22.715C22.7525 9.61 22.79 9.6 22.84 9.585L23.3425 10.02ZM19.7925 4.8425C19.7962 4.32 20.07 4.0425 20.4738 3.87625C20.8775 3.71 21.4012 3.67125 21.8387 3.67125L22.5388 3.68375C22.5974 3.69103 22.6544 3.70792 22.7075 3.73375C22.7375 3.74625 22.7675 3.76625 22.7825 3.77875L22.7888 3.78375V9.35125C22.7888 9.3925 22.755 9.4225 22.7162 9.4225H19.7937L19.7925 4.8425ZM16.6137 3.7825C16.6287 3.77375 16.6725 3.74125 16.7237 3.72C16.7725 3.70283 16.8234 3.69232 16.875 3.68875L17.5875 3.67C18.02 3.67 18.5425 3.7075 18.9425 3.875C19.3387 4.05 19.6075 4.32 19.6087 4.84125V9.42H16.6962C16.65 9.42 16.6162 9.39 16.6162 9.34875V3.78125L16.6137 3.7825ZM16.6937 9.6075H19.3037C19.2335 9.65324 19.1738 9.71349 19.1287 9.78421C19.0837 9.85493 19.0543 9.93447 19.0425 10.0175H16.075C16.0625 10.0175 16.05 10.0175 16.035 10.0113L16.56 9.57125C16.5975 9.59625 16.6425 9.6075 16.6937 9.6075ZM15.9537 3.81125C15.9537 3.77125 16.0112 3.68625 16.085 3.68625L16.4537 3.685C16.4412 3.7075 16.4325 3.72875 16.4287 3.76V9.335C16.4302 9.36217 16.4365 9.38885 16.4475 9.41375L15.955 9.83L15.9537 3.81125ZM12.0575 3.68625L12.425 3.6875C12.4937 3.6875 12.5563 3.75875 12.5563 3.8125V9.8775L12.0562 9.4525C12.0687 9.42 12.0787 9.385 12.0787 9.3475V3.7725C12.0775 3.74125 12.0687 3.72 12.0562 3.6975L12.0575 3.68625ZM12.44 10.0075H9.30625C9.29431 9.92512 9.26537 9.84613 9.22125 9.77555C9.17714 9.70496 9.11882 9.64433 9.05 9.5975H11.8175C11.855 9.5975 11.895 9.59125 11.9275 9.5775L12.44 10.0075ZM8.9 4.83C8.90375 4.3075 9.175 4.03 9.5775 3.86375C9.98 3.6975 10.5075 3.65875 10.9475 3.65875L11.6425 3.67125C11.66 3.67125 11.7462 3.68875 11.8112 3.72125C11.8385 3.73296 11.8641 3.74808 11.8875 3.76625L11.8937 3.77125V9.33875C11.8937 9.38 11.86 9.41 11.8162 9.41H8.89625L8.9 4.83ZM5.7175 3.77C5.7325 3.76125 5.7775 3.72875 5.8425 3.7075C5.89109 3.69121 5.94144 3.68072 5.9925 3.67625L6.7025 3.6575C7.13625 3.6575 7.655 3.695 8.055 3.8625C8.4525 4.0375 8.72125 4.3075 8.72625 4.82875L8.725 9.4075H5.79625C5.7525 9.4075 5.71625 9.3775 5.71625 9.33625L5.7175 3.77ZM5.79625 9.60625H8.42125C8.27875 9.7 8.1875 9.84625 8.16125 10.0163H5.17125C5.14625 10.0163 5.13 10.0163 5.1175 10.0075L5.63875 9.5625C5.68 9.59 5.73375 9.60625 5.785 9.60625H5.79625ZM5.04625 3.81C5.04625 3.77 5.10375 3.685 5.175 3.685L5.54 3.68375C5.5275 3.70625 5.5225 3.72375 5.5175 3.75875V9.33375C5.5175 9.355 5.5225 9.375 5.53 9.40125L5.04625 9.81125V3.81ZM4.39125 10.465C4.29375 10.465 4.22 10.3838 4.22 10.29V9.3775C3.96375 9.345 3.765 9.185 3.765 8.99625C3.765 8.8075 3.965 8.64625 4.22 8.6125V5.66875C3.96375 5.63125 3.765 5.47625 3.765 5.2875C3.765 5.09875 3.965 4.9425 4.22 4.905V3.7375C4.22 3.6425 4.295 3.56875 4.39125 3.56875L4.90125 3.66875C4.87625 3.70625 4.86 3.75625 4.85875 3.80875V9.91625C4.86 10.085 5.005 10.2038 5.16875 10.2038H8.13625C8.15125 10.3013 8.1925 10.3888 8.25125 10.4638L4.39125 10.465ZM8.885 10.465H8.54125C8.47258 10.4311 8.4147 10.3788 8.37408 10.3139C8.33346 10.249 8.3117 10.1741 8.31125 10.0975C8.31125 9.99108 8.35352 9.88902 8.42877 9.81377C8.50402 9.73852 8.60608 9.69625 8.7125 9.69625C8.81892 9.69625 8.92098 9.73852 8.99622 9.81377C9.07147 9.88902 9.11375 9.99108 9.11375 10.0975C9.11375 10.26 9.02 10.3975 8.88375 10.465H8.885ZM13.6175 8.9975C13.6175 9.185 13.42 9.34 13.165 9.37875V10.2912C13.165 10.3825 13.09 10.4662 12.9937 10.4662H9.17125C9.229 10.3888 9.2691 10.2996 9.28875 10.205H12.4187C12.5775 10.205 12.7225 10.0863 12.7225 9.9175V3.81C12.7225 3.74 12.6975 3.68 12.66 3.6325L12.9925 3.57C13.0887 3.57 13.1637 3.645 13.1637 3.73875V4.9075C13.42 4.945 13.6162 5.0975 13.6162 5.28875C13.6162 5.48 13.4187 5.6325 13.1637 5.67V8.61375C13.4212 8.65125 13.6175 8.81125 13.6175 8.9975ZM15.28 10.465C15.1862 10.465 15.1125 10.3838 15.1125 10.29V9.3775C14.8625 9.345 14.655 9.185 14.655 8.99625C14.655 8.8075 14.85 8.64625 15.1125 8.6125V5.66875C14.8625 5.63125 14.655 5.47625 14.655 5.2875C14.655 5.09875 14.85 4.9425 15.1125 4.905V3.7375C15.1125 3.6425 15.185 3.56875 15.28 3.56875L15.78 3.66875C15.755 3.70875 15.7425 3.75625 15.7425 3.80875V9.91625C15.7425 10.085 15.885 10.2038 16.0487 10.2038H19.0175C19.0349 10.2982 19.0743 10.3873 19.1325 10.4638L15.28 10.465ZM19.7762 10.465H19.43C19.3 10.3975 19.2025 10.2612 19.2025 10.0975C19.2025 9.88 19.3837 9.7 19.6075 9.7C19.7134 9.69967 19.8151 9.74132 19.8903 9.81583C19.9655 9.89034 20.0081 9.99163 20.0087 10.0975C20.01 10.26 19.9112 10.3975 19.7762 10.465ZM24.5088 8.9975C24.5088 9.185 24.3162 9.34 24.0587 9.37875V10.2912C24.0584 10.337 24.0402 10.3808 24.0079 10.4133C23.9757 10.4458 23.932 10.4643 23.8862 10.465H20.0675C20.1247 10.3875 20.164 10.2983 20.1825 10.2038H23.31C23.4725 10.2038 23.62 10.085 23.62 9.91625V3.80875C23.62 3.73875 23.595 3.67875 23.555 3.63125L23.8875 3.56875C23.985 3.56875 24.06 3.64375 24.06 3.7375V4.90625C24.3175 4.94375 24.51 5.09625 24.51 5.2875C24.51 5.47875 24.3175 5.63125 24.06 5.66875V8.6125C24.3175 8.65 24.51 8.81 24.51 8.99625L24.5088 8.9975ZM26.175 10.465C26.0875 10.465 26.0062 10.3838 26.0062 10.29V9.3775C25.7562 9.345 25.5525 9.185 25.5525 8.99625C25.5525 8.8075 25.7462 8.64625 26.0062 8.6125V5.66875C25.7562 5.63125 25.5525 5.47625 25.5525 5.2875C25.5525 5.09875 25.7462 4.9425 26.0062 4.905V3.7375C26.0062 3.6425 26.085 3.56875 26.175 3.56875L26.6812 3.66875C26.6603 3.70903 26.6483 3.75339 26.6462 3.79875V9.90625C26.65 10.0712 26.7912 10.1887 26.9537 10.1887H29.9212C29.9387 10.2912 29.9837 10.3813 30.0425 10.4638L26.175 10.465ZM30.6725 10.465H30.3287C30.2037 10.3975 30.1 10.2612 30.1 10.0975C30.1007 9.99228 30.1427 9.89155 30.2171 9.81715C30.2916 9.74275 30.3923 9.70066 30.4975 9.7C30.7225 9.7 30.9037 9.88 30.9037 10.0975C30.9037 10.26 30.805 10.3975 30.6725 10.465ZM35.4062 8.9975C35.4062 9.185 35.21 9.3475 34.9475 9.37875V10.2912C34.9475 10.3825 34.875 10.4662 34.7812 10.4662H30.9587C31.0209 10.3859 31.0622 10.2914 31.0788 10.1912H34.2012C34.3662 10.1912 34.5137 10.0738 34.5137 9.90375V3.8C34.5137 3.735 34.4912 3.68 34.4587 3.6325L34.7812 3.57C34.875 3.57 34.9475 3.645 34.9475 3.73875V4.90625C35.1975 4.94375 35.4062 5.09625 35.4062 5.28875C35.4062 5.48125 35.21 5.6325 34.9475 5.67V8.61375C35.1975 8.65125 35.4062 8.81125 35.4062 8.9975ZM10.4112 7.9475C10.2187 7.9475 10.165 7.9 10.165 7.7225V6.745C10.455 6.745 10.605 6.86375 10.6425 7.37H10.715V6.00625H10.6425C10.595 6.50625 10.4475 6.61375 10.165 6.60875V5.67125C10.165 5.49625 10.215 5.48375 10.3775 5.48375C10.7738 5.48375 10.9825 5.58375 11.0475 6.15875H11.12V5.34375H9.425V5.4475C9.55 5.46 9.675 5.46625 9.675 5.735V7.69375C9.675 7.93625 9.58375 7.9525 9.425 7.975V8.0775H11.1475L11.2662 7.23375H11.1812C10.9962 7.85875 10.7012 7.95125 10.41 7.95125L10.4112 7.9475ZM32.0212 7.865C32.1125 7.865 32.2425 7.99 32.525 7.99C33.0625 7.99 33.2525 7.5 33.2525 7.14C33.2525 6.7025 33.0313 6.4675 32.9275 6.39L32.5 6.09625C32.25 5.9275 32.1962 5.83875 32.1962 5.62125C32.1962 5.37125 32.3587 5.2375 32.5087 5.2375C32.8587 5.2375 33.0337 5.7 33.0887 5.98125H33.1687V5.10625H33.085C33.0675 5.1875 33.0537 5.2475 32.985 5.2475C32.9025 5.2475 32.7638 5.1125 32.5288 5.1125C31.9688 5.1125 31.8787 5.6625 31.8787 5.9125C31.8787 6.1 31.8787 6.445 32.3825 6.7875L32.58 6.9125C32.7675 7.035 32.905 7.13375 32.905 7.4125C32.905 7.47125 32.8962 7.87125 32.53 7.87125C32.155 7.87125 31.9837 7.40875 31.9237 7.00375H31.8387V8.00375H31.9237C31.9387 7.9375 31.9487 7.87875 32.0112 7.87875L32.0212 7.865ZM6.34625 5.67125L7.09625 8.0925H7.175L7.845 5.7225C7.91375 5.4975 7.95 5.41625 8.11 5.39125V5.28875H7.485V5.39125C7.65375 5.40375 7.73875 5.41625 7.73875 5.57375C7.73875 5.65625 7.70625 5.76125 7.68125 5.855L7.30625 7.18L6.925 5.905C6.8975 5.805 6.83375 5.6325 6.83375 5.555C6.83375 5.405 6.90375 5.405 7.09 5.38875V5.28625H6.09V5.38875C6.215 5.41375 6.26125 5.42625 6.33625 5.66875L6.34625 5.67125ZM18.0675 7.89625C17.8775 7.85875 17.8112 7.84625 17.8112 7.52625V6.73375H17.89L18.5 8.00125H19.1V7.89625C19.0625 7.89625 19.0187 7.895 18.9787 7.82125L18.3875 6.67125C18.545 6.59875 18.8475 6.47625 18.8475 5.97625C18.8475 5.2975 18.2275 5.26625 18.0225 5.26625H17.0762V5.37375C17.2437 5.38625 17.3362 5.39375 17.3362 5.73875V7.52625C17.3362 7.85125 17.2737 7.86375 17.0762 7.89625V8.00125H18.0675V7.89625ZM17.8112 5.57625C17.8237 5.4475 17.8312 5.405 17.9962 5.405C18.23 5.405 18.35 5.58 18.35 5.9875C18.35 6.50875 18.2 6.6125 17.8125 6.6025L17.8112 5.57625ZM28.3575 5.39875V7.52375C28.3575 7.86125 28.29 7.87375 28.0725 7.89375V7.99875H29.125V7.88125C28.9037 7.86125 28.8337 7.8525 28.8337 7.51125V5.38625C29.0362 5.395 29.34 5.42375 29.3962 6.07H29.4837L29.48 5.245H27.7137L27.7075 6.06H27.795C27.85 5.41 28.15 5.385 28.3575 5.37625V5.39875ZM30.145 7.8925C30.045 7.88375 29.9025 7.8725 29.9025 7.72C29.9025 7.65125 29.9525 7.485 30.0362 7.19125H30.6962C30.7337 7.32125 30.825 7.6225 30.825 7.7325C30.825 7.86625 30.775 7.8725 30.595 7.8925V7.9875H31.545V7.88125C31.405 7.89 31.3575 7.74875 31.225 7.31875L30.5725 5.19375H30.4912L29.8412 7.40625C29.75 7.71125 29.71 7.85 29.5513 7.88125V7.97625H30.1475L30.145 7.8925ZM30.3537 6.05875L30.6487 7.0375H30.0762L30.3537 6.05875ZM20.7287 5.37375C20.8537 5.3825 21.0012 5.39125 21.0012 5.65375V7.6075C21.0012 7.8575 20.8862 7.875 20.7287 7.895V8H21.7587V7.895C21.5962 7.8825 21.4787 7.86625 21.4787 7.6075V5.6575C21.4787 5.3875 21.6187 5.3825 21.7587 5.3775V5.25625H20.7287V5.37375ZM26.7087 14.9237C26.9582 15.3061 27.1258 15.736 27.2012 16.1862C27.4137 17.4575 26.7937 18.8013 24.47 18.9363C24.4325 20.8413 23.9637 21.62 21.5475 21.6613C21.7562 23.6888 20.6975 24.3487 19.5562 24.3487C18.415 24.3487 17.35 23.69 17.56 21.6613C15.1437 21.6175 14.6775 20.8388 14.635 18.9363C12.31 18.815 11.6937 17.4712 11.91 16.1862C11.98 15.7337 12.155 15.295 12.4 14.9362H0V15.5662C0.02125 38.8812 19.28 48.9063 19.3375 48.9375L19.6287 49.0938L19.925 48.9375C19.9825 48.9063 39.2437 38.8687 39.2625 15.5662V14.9362L26.7087 14.9237ZM10.6212 36.3063C11.0837 36.0638 11.4375 35.3525 11.5212 34.8687C11.6462 34.2437 11.7638 33.9938 12.0963 33.9713C12.4288 33.9488 12.5587 34.2437 12.6712 34.8687C12.7537 35.3525 13.1062 36.0625 13.5687 36.3063C13.8562 36.4588 14.7862 36.4813 14.5975 37.0263C14.4687 37.2738 14.2975 37.7813 14.0475 37.5563C13.7975 37.3313 13.3575 36.7437 13.1725 36.7062C13.005 36.6775 13.0287 36.9312 13.1 37.0187C13.1975 37.1287 13.4912 37.5563 13.6587 37.7525C13.8712 37.9925 13.9362 38.4337 13.565 38.6075C13.1937 38.7812 12.815 38.56 12.8237 38.3613C12.8362 38.0613 12.6575 37.205 12.495 37.205C12.3662 37.205 12.3612 37.43 12.375 37.67C12.325 38.175 12.6625 38.5788 12.625 38.8388C12.5787 39.0913 12.525 39.36 12.0825 39.355C11.6375 39.3425 11.5825 39.105 11.54 38.8388C11.4987 38.5888 11.84 38.1737 11.785 37.67C11.8 37.4287 11.795 37.205 11.6662 37.205C11.5087 37.205 11.3213 38.0625 11.3413 38.3613C11.3488 38.5613 10.9662 38.7825 10.5962 38.6075C10.2262 38.4325 10.2912 37.9913 10.5 37.7525C10.6687 37.555 10.9662 37.13 11.0625 37.0187C11.1312 36.9312 11.16 36.6775 10.99 36.7062C10.8187 36.7437 10.385 37.3288 10.13 37.5563C9.875 37.7838 9.7075 37.2738 9.58 37.0263C9.3925 36.4825 10.32 36.4588 10.6087 36.3063H10.6212ZM10.9387 34.7063C11.235 34.6725 11.0862 34.9812 11.055 35.2562C11.0237 35.5312 10.95 35.5562 10.6637 35.1712C10.3775 34.7862 10.6175 34.7425 10.9387 34.7088V34.7063ZM13.2387 34.7338C13.5575 34.7763 13.8012 34.8212 13.5137 35.1962C13.2262 35.5812 13.1537 35.5512 13.1212 35.2837C13.0887 35.0162 12.94 34.7038 13.2387 34.7313V34.7338ZM26.9388 37.205C26.78 37.205 26.6012 38.0625 26.6137 38.3613C26.6212 38.5613 26.2437 38.7825 25.87 38.6075C25.4962 38.4325 25.5663 37.9913 25.7763 37.7525C25.9463 37.555 26.245 37.13 26.3387 37.0187C26.4062 36.9312 26.4325 36.6775 26.2637 36.7062C26.095 36.7437 25.6575 37.3288 25.3887 37.5563C25.12 37.7838 24.9675 37.2738 24.8388 37.0263C24.6463 36.4838 25.5787 36.4588 25.8637 36.3063C26.3262 36.0638 26.68 35.3525 26.7637 34.8687C26.8725 34.2437 27.0138 33.9938 27.3388 33.9713C27.6638 33.9488 27.7962 34.2437 27.9137 34.8687C27.995 35.3525 28.3513 36.0625 28.8138 36.3063C29.1013 36.4588 30.03 36.4813 29.8425 37.0263C29.7112 37.2738 29.5425 37.7813 29.2887 37.5563C29.035 37.3313 28.6012 36.7437 28.43 36.7062C28.2637 36.6775 28.2875 36.9312 28.3575 37.0187C28.4575 37.1287 28.7525 37.5563 28.9225 37.7525C29.135 37.9925 29.1975 38.4337 28.8225 38.6075C28.4475 38.7812 28.0725 38.56 28.0825 38.3613C28.095 38.0613 27.9138 37.205 27.7538 37.205C27.6238 37.205 27.6287 37.43 27.635 37.67C27.58 38.175 27.9225 38.5788 27.8775 38.8388C27.8362 39.0913 27.7812 39.36 27.34 39.355C26.8925 39.3425 26.84 39.105 26.795 38.8388C26.7525 38.5888 27.0925 38.1737 27.04 37.67C27.0575 37.4287 27.055 37.205 26.9213 37.205H26.9388ZM26.1975 34.705C26.4975 34.6712 26.3437 34.98 26.3162 35.255C26.2887 35.53 26.2087 35.555 25.925 35.17C25.6412 34.785 25.88 34.7413 26.2 34.7075L26.1975 34.705ZM28.4975 34.7325C28.82 34.775 29.0562 34.82 28.7725 35.195C28.4875 35.58 28.4125 35.55 28.3812 35.2825C28.35 35.015 28.1962 34.7025 28.4962 34.73L28.4975 34.7325ZM28.7725 19.8275C28.4875 20.21 28.4125 20.1825 28.3812 19.9113C28.35 19.64 28.1962 19.3325 28.4962 19.3613C28.8175 19.3963 29.0562 19.4487 28.7725 19.8275ZM26.195 19.3325C26.495 19.3 26.3413 19.6112 26.3138 19.8787C26.2863 20.1462 26.2063 20.1825 25.9225 19.7988C25.6388 19.415 25.8775 19.365 26.1975 19.3325H26.195ZM25.8775 20.9325C26.34 20.69 26.6937 19.9862 26.7775 19.4975C26.8862 18.8687 27.0275 18.6225 27.3525 18.5975C27.6775 18.5913 27.81 18.87 27.9275 19.4975C28.0088 19.9975 28.365 20.6888 28.8275 20.9325C29.115 21.0875 30.0437 21.1075 29.8562 21.6537C29.725 21.9087 29.5562 22.4087 29.3025 22.1837C29.0487 21.9587 28.615 21.3713 28.4437 21.3363C28.2725 21.3013 28.3013 21.5687 28.3713 21.645C28.4713 21.7612 28.7662 22.1825 28.9362 22.3775C29.1487 22.6188 29.2112 23.065 28.8362 23.2525C28.4612 23.44 28.0862 23.2025 28.0962 23.0025C28.1087 22.7025 27.9275 21.845 27.7675 21.845C27.6375 21.845 27.6425 22.065 27.6487 22.3125C27.5937 22.8163 27.9362 23.2175 27.8912 23.4787C27.8462 23.74 27.795 24.0012 27.3537 23.995C26.9062 23.985 26.8538 23.7375 26.8088 23.4787C26.7638 23.22 27.1062 22.8163 27.0537 22.3125C27.0737 22.065 27.07 21.845 26.935 21.845C26.7762 21.845 26.5975 22.7038 26.61 23.0025C26.6175 23.1988 26.24 23.4237 25.8662 23.2525C25.4925 23.0812 25.5625 22.6313 25.7725 22.395C25.9425 22.195 26.2412 21.7737 26.335 21.645C26.4025 21.57 26.4287 21.3038 26.26 21.3363C26.0912 21.3688 25.6538 21.9562 25.385 22.1837C25.1163 22.4112 24.9637 21.9087 24.835 21.6537C24.6425 21.1062 25.575 21.0888 25.86 20.9325H25.8775ZM27.3525 27.0575C27.14 24.9075 28.495 24.29 30.105 24.4138C29.8925 22.2638 30.98 21.56 32.9025 21.6412C32.6475 19.125 34.345 18.835 35.66 18.9188C35.4562 17.0438 36.7912 16.2712 37.6975 16.1762H37.985C37.86 24.8013 34.9775 31.4638 31.525 36.4338C30.0925 36.0788 29.8625 34.9187 29.9775 33.8762C27.8613 34.1262 27.0125 32.595 27.3062 31.1488C26.5012 31.4363 24.7625 31.0237 24.5525 29.4937C24.3425 27.9637 25.5712 27.0575 27.3525 27.0575ZM20.8525 27.04C21.1725 27.0725 21.415 27.1212 21.13 27.5C20.845 27.8787 20.77 27.8537 20.7387 27.5837C20.7075 27.3137 20.5538 27.0062 20.8638 27.04H20.8525ZM18.5525 27.0063C18.8462 26.9725 18.6987 27.2862 18.6775 27.5512C18.6562 27.8162 18.5737 27.8537 18.3025 27.4725C18.0312 27.0912 18.2562 27.0413 18.58 27.0063H18.5525ZM18.2337 28.6063C18.6937 28.3638 19.05 27.6562 19.1312 27.1687C19.2412 26.5462 19.3775 26.2938 19.7062 26.2713C20.035 26.2488 20.1687 26.5462 20.2762 27.1687C20.3612 27.6687 20.7163 28.3625 21.1763 28.6063C21.4663 28.7588 22.3962 28.7812 22.2062 29.3312C22.075 29.585 21.9063 30.0875 21.6538 29.8612C21.4013 29.635 20.9625 29.0463 20.7975 29.0113C20.625 28.9813 20.6512 29.2363 20.7225 29.3238C20.8175 29.4488 21.1137 29.8612 21.285 30.0575C21.4975 30.2987 21.5575 30.7375 21.1875 30.9138C20.8175 31.09 20.435 30.8638 20.4437 30.6638C20.4625 30.3613 20.275 29.5075 20.115 29.5075C19.9875 29.5075 19.9837 29.725 19.99 29.9663C19.94 30.4663 20.2775 30.8813 20.235 31.1413C20.1925 31.4013 20.1375 31.6625 19.695 31.6562C19.2525 31.65 19.195 31.4063 19.1575 31.1413C19.1112 30.8825 19.4487 30.4788 19.3975 29.9663C19.4125 29.7263 19.4062 29.5075 19.2812 29.5075C19.1187 29.5075 18.9387 30.3613 18.95 30.6638C18.9625 30.8613 18.5812 31.0863 18.21 30.9138C17.8387 30.7413 17.9037 30.2987 18.1162 30.0575C18.285 29.8625 18.5812 29.4363 18.675 29.3238C18.745 29.2363 18.7725 28.9825 18.6 29.0113C18.4275 29.04 17.9962 29.6312 17.745 29.8612C17.4937 30.0912 17.32 29.5862 17.1912 29.3312C17.0012 28.7812 17.9412 28.7588 18.22 28.6063H18.2337ZM17.5425 36.7313C17.375 35.1138 18.35 34.0463 19.6637 34.0463C20.9775 34.0463 21.9512 35.1138 21.785 36.7313C23.2262 36.3188 25.1325 37.0138 24.6687 39.4975C26.3137 38.94 27.5812 39.8012 27.6612 41.1512C24.0175 44.9475 20.5862 47.0513 19.5962 47.6325C18.5912 47.0575 15.225 44.985 11.65 41.2763C11.65 39.8538 12.9625 38.92 14.66 39.4975C14.1937 37.0138 16.1037 36.32 17.5425 36.7313ZM14.83 29.4813C14.6175 31.0088 12.88 31.4237 12.0762 31.1362C12.3687 32.5825 11.5262 34.1113 9.40375 33.8638C9.52375 34.9438 9.27875 36.1638 7.71375 36.4588C4.26 31.4838 1.37625 24.7913 1.24625 16.1713C1.25875 16.1713 1.27125 16.1663 1.28375 16.1663H1.68375C2.59375 16.2663 3.92375 17.0338 3.72625 18.9088C5.03875 18.825 6.735 19.115 6.48125 21.6313C8.38875 21.55 9.49125 22.2525 9.27625 24.4038C10.9012 24.2788 12.2512 24.8975 12.0362 27.0475C13.8137 27.0462 15.0425 27.9563 14.8312 29.4825L14.83 29.4813ZM10.6988 19.8525C10.6613 20.125 10.5913 20.1563 10.3038 19.7725C10.0163 19.3888 10.2637 19.3387 10.5825 19.3062C10.8825 19.2737 10.73 19.5837 10.6988 19.8525ZM12.8825 19.335C13.2012 19.3725 13.4425 19.4225 13.1575 19.8012C12.8725 20.18 12.7987 20.1562 12.7662 19.885C12.7337 19.6137 12.5912 19.3075 12.8825 19.335ZM12.3075 19.46C12.395 19.96 12.7475 20.6512 13.21 20.895C13.4975 21.05 14.43 21.07 14.2375 21.6162C14.1087 21.8712 13.94 22.375 13.685 22.1462C13.43 21.9175 12.9975 21.3337 12.8287 21.2987C12.66 21.2637 12.6862 21.5312 12.7575 21.6075C12.8512 21.7237 13.1325 22.145 13.32 22.3575C13.53 22.6075 13.595 23.0413 13.225 23.215C12.855 23.3888 12.475 23.165 12.4812 22.965C12.4962 22.665 12.3112 21.8075 12.1512 21.8075C12.0262 21.8075 12.02 22.0275 12.0262 22.275C11.9712 22.7787 12.3075 23.18 12.2662 23.4413C12.225 23.7025 12.17 23.9638 11.7262 23.9575C11.2825 23.9513 11.2287 23.7 11.1862 23.4413C11.1437 23.1825 11.4837 22.7787 11.4287 22.275C11.4487 22.0275 11.4412 21.8075 11.3037 21.8075C11.145 21.8075 10.96 22.6662 10.9725 22.965C10.985 23.1612 10.605 23.3863 10.2225 23.215C9.84 23.0438 9.91375 22.5937 10.1275 22.3575C10.295 22.1575 10.5937 21.7362 10.6875 21.6075C10.7587 21.5325 10.7837 21.2662 10.615 21.2987C10.4462 21.3312 10.0112 21.9187 9.75625 22.1462C9.50125 22.3737 9.33125 21.8712 9.20625 21.6162C9.01375 21.0687 9.95625 21.0512 10.2312 20.895C10.6937 20.6525 11.0437 19.9488 11.1312 19.46C11.24 18.8313 11.3763 18.585 11.7013 18.56C12.0325 18.5537 12.1637 18.8325 12.2712 19.46H12.3075ZM59.47 24.2062C59.47 25.9837 58.2525 27.1813 55.5575 27.1813H50.5037V16.1562H55.4075C57.7475 16.1562 59 17.2225 59 19.0387C59 20.3312 58.2525 21.23 57.0725 21.5287C58.6262 21.8475 59.4675 22.8962 59.4675 24.2062H59.47ZM53.5462 20.7562H54.7262C55.5137 20.7562 56.0012 20.4562 56.0012 19.7062C56.0012 18.9562 55.5012 18.6562 54.7262 18.6562H53.5462V20.7562ZM53.5462 24.6687H55.1375C55.9037 24.6687 56.335 24.3313 56.335 23.6963C56.335 23.0613 55.9037 22.7213 55.1375 22.7213H53.5462V24.6687ZM65.4512 25.5838C65.2062 26.7263 64.3262 27.4163 62.8487 27.4163C61.2762 27.4163 60.1737 26.4437 60.1737 24.4162V18.5313H63.205V23.7562C63.205 24.6312 63.4475 25.1413 64.1425 25.1413C64.93 25.1413 65.4175 24.4287 65.4175 23.0262V18.5313H68.4212V27.1787H65.7087L65.4512 25.5838ZM71.5212 24.2062C71.5814 24.5207 71.7524 24.8031 72.0031 25.0022C72.2538 25.2013 72.5676 25.3038 72.8875 25.2912C73.43 25.2912 73.805 25.1037 73.805 24.7287C73.805 24.3537 73.4875 24.1862 72.8675 24.0537L71.705 23.81C70.1325 23.4725 69.3087 22.6675 69.3087 21.245C69.3087 19.1488 71.1062 18.325 73.0337 18.325C75.1112 18.325 76.365 19.2 76.6637 20.7962L73.9137 21.2087C73.82 20.7087 73.5212 20.4413 72.9387 20.4413C72.5087 20.4413 72.2087 20.6475 72.2087 20.9838C72.2087 21.32 72.4512 21.4888 72.9012 21.565L74.0612 21.7712C75.97 22.09 76.7737 23.1188 76.7737 24.5788C76.7737 26.6188 74.9962 27.4037 72.8612 27.4037C70.8962 27.4037 69.5862 26.6938 69.1112 25.1575L71.5212 24.2062ZM79.1562 14.7875C80.0562 14.7875 80.8225 15.405 80.8225 16.3788C80.8225 17.3525 80.055 17.97 79.1562 17.97C78.2575 17.97 77.4912 17.3525 77.4912 16.3788C77.4912 15.405 78.2587 14.7875 79.1562 14.7875ZM80.6712 18.5313V27.1787H77.6712V18.5313H80.6712ZM84.9787 20.1988C85.4287 18.9063 86.4387 18.3262 87.7287 18.3262C89.0575 18.3262 90.2562 19.1138 90.2562 21.0975V27.1813H87.2562V22.2563C87.2562 21.3763 87.0062 20.8337 86.2275 20.8337C85.5725 20.8337 85.0112 21.2275 85.0112 22.5563V27.1787H81.9837V18.5313H84.6987L84.9787 20.1988ZM96.75 24.0563L99.2587 24.8437C98.7587 26.6962 97.2362 27.4063 95.5137 27.4063C92.9512 27.4063 91.0787 25.7788 91.0787 22.9513C91.0787 20.0313 92.725 18.3262 95.4537 18.3262C98.0162 18.3262 99.3287 19.9737 99.3287 22.37L99.2912 23.4575H93.9962C94.0537 24.525 94.5762 25.1037 95.4762 25.1037C96.1012 25.1037 96.5437 24.8238 96.7487 24.0575L96.75 24.0563ZM96.45 21.9213C96.45 21.1713 96.2 20.5163 95.345 20.5163C94.615 20.5163 94.1475 21.1163 94.0725 21.9213H96.45Z" fill="#838383"/>
<path d="M102.084 24.2064C102.144 24.5209 102.315 24.8033 102.566 25.0024C102.816 25.2015 103.13 25.304 103.45 25.2914C103.992 25.2914 104.367 25.1039 104.367 24.7289C104.367 24.3539 104.05 24.1864 103.432 24.0539L102.27 23.8102C100.697 23.4727 99.875 22.6677 99.875 21.2452C99.875 19.1489 101.671 18.3252 103.6 18.3252C105.679 18.3252 106.932 19.1877 107.231 20.7964L104.479 21.2089C104.385 20.7089 104.086 20.4414 103.504 20.4414C103.074 20.4414 102.774 20.6477 102.774 20.9839C102.774 21.3202 103.016 21.4889 103.466 21.5652L104.629 21.7714C106.537 22.0902 107.341 23.1189 107.341 24.5789C107.341 26.6189 105.562 27.4039 103.429 27.4039C101.464 27.4039 100.154 26.6939 99.6787 25.1577L102.084 24.2064Z" fill="#838383"/>
<path d="M110.096 24.2061C110.156 24.5205 110.327 24.8029 110.578 25.002C110.829 25.2011 111.143 25.3037 111.463 25.2911C112.005 25.2911 112.381 25.1036 112.381 24.7286C112.381 24.3536 112.063 24.1861 111.444 24.0536L110.284 23.8098C108.711 23.4723 107.886 22.6673 107.886 21.2448C107.886 19.1486 109.684 18.3248 111.611 18.3248C113.689 18.3248 114.943 19.1998 115.243 20.7961L112.489 21.2086C112.396 20.7086 112.096 20.4411 111.516 20.4411C111.086 20.4411 110.786 20.6473 110.786 20.9836C110.786 21.3198 111.029 21.4886 111.479 21.5648L112.639 21.7711C114.549 22.0898 115.354 23.1186 115.354 24.5786C115.354 26.6186 113.575 27.4036 111.441 27.4036C109.476 27.4036 108.166 26.6936 107.691 25.1573L110.096 24.2061ZM56.6788 40.5286C56.325 40.2286 56.1938 39.8161 56.0625 39.2936L55.725 37.9273C55.5375 37.1398 55.22 36.9898 54.5075 36.9898H53.5538V40.5273H50.5038V29.5061H55.22C57.69 29.5061 59.395 30.4598 59.395 32.9686C59.395 34.7098 58.27 35.5711 57.055 35.7761C58.065 35.9823 58.5713 36.4298 58.8338 37.3861L59.3588 39.2761C59.49 39.7761 59.6388 40.1511 60.0338 40.5311L56.6788 40.5286ZM53.5538 34.5211H54.7338C55.8 34.5211 56.2688 34.0886 56.2688 33.3036C56.2688 32.5186 55.8 32.0861 54.7338 32.0861H53.5538V34.5211ZM65.5138 37.4036L68.0213 38.1911C67.5213 40.0448 65.9988 40.7536 64.2775 40.7536C61.7125 40.7536 59.84 39.1248 59.84 36.2998C59.84 33.3798 61.4875 31.6748 64.215 31.6748C66.7775 31.6748 68.09 33.3223 68.09 35.7173L68.0525 36.8048H62.7775C62.8338 37.8698 63.3575 38.4498 64.2563 38.4498C64.8913 38.4498 65.3225 38.1711 65.5288 37.4036H65.5138ZM65.2138 35.2561C65.2138 34.5086 64.9638 33.8536 64.11 33.8536C63.38 33.8536 62.9125 34.4536 62.8375 35.2561H65.2138ZM67.8538 31.8811H71.0463L72.0388 35.3623L72.6013 37.4786H72.6388C72.6388 37.4786 72.8263 36.6036 73.22 35.3623L74.3425 31.8811H77.28L74.1363 40.5273H70.88L67.8538 31.8811ZM79.4188 28.1398C80.3188 28.1398 81.0863 28.7573 81.0863 29.7311C81.0863 30.7048 80.3175 31.3211 79.4188 31.3211C78.52 31.3211 77.7538 30.7048 77.7538 29.7311C77.7538 28.7573 78.5213 28.1398 79.4188 28.1398ZM80.9213 31.8811V40.5273H77.9213V31.8811H80.9213ZM87.53 37.4036L90.0375 38.1911C89.5375 40.0448 88.0163 40.7536 86.295 40.7536C83.7325 40.7536 81.86 39.1248 81.86 36.2998C81.86 33.3798 83.5075 31.6748 86.235 31.6748C88.7975 31.6748 90.11 33.3223 90.11 35.7173L90.0725 36.8048H84.7963C84.8525 37.8698 85.375 38.4498 86.2738 38.4498C86.8988 38.4498 87.3425 38.1711 87.5488 37.4036H87.53ZM87.2438 35.2561C87.2438 34.5086 86.9938 33.8536 86.14 33.8536C85.4088 33.8536 84.94 34.4536 84.8675 35.2561H87.2438ZM98.1938 31.8811L98.8113 34.8811L99.3113 37.5961H99.3488L99.8913 34.9186L100.584 31.8686H103.521L101.184 40.5148H97.8088L97.2838 37.9873L96.815 35.2173H96.7775L96.31 37.9873L95.785 40.5148H92.4163L90.05 31.8811H93.1L93.7925 34.9311L94.335 37.6086H94.3725L94.8725 34.8936L95.4913 31.8936L98.1938 31.8811ZM68.8463 10.9811C68.8463 11.3936 68.9713 11.6061 69.2775 11.6061C69.465 11.6061 69.6525 11.5311 69.82 11.4373V13.5723C69.4075 13.8723 69.0163 13.9848 68.3225 13.9848C67.1625 13.9848 66.5263 13.4598 66.1875 12.6173C65.6875 13.5173 64.9325 14.0223 63.6875 14.0223C62.0975 14.0223 61.1038 13.0848 61.1038 11.6073C61.1038 9.75359 62.4325 8.81984 65.0338 8.81984H65.9138V8.23984C65.9138 7.67734 65.7263 7.28484 65.1838 7.28484C64.6588 7.28484 64.4175 7.60359 64.38 8.31484L61.4963 7.86484C61.665 6.08609 63.0513 4.96484 65.2775 4.96484C67.7488 4.96484 68.8338 6.05234 68.8338 7.94234L68.8463 10.9811ZM65.9263 10.3636H65.5463C64.4588 10.3636 64.0838 10.7011 64.0838 11.2636C64.0838 11.6761 64.3638 11.9936 64.8888 11.9936C65.3938 11.9936 65.9363 11.7436 65.9363 10.9273L65.9263 10.3636ZM76.2038 8.58609C75.8475 8.45484 75.6413 8.36109 75.1538 8.36109C74.4413 8.36109 73.5825 8.64109 73.5825 10.1773V13.8273H70.5663V5.17734H73.15L73.45 7.31234C73.6925 5.86984 74.91 5.17734 76.3875 5.17734L76.2038 8.58609Z" fill="#838383"/>
<path d="M76.6713 5.17879H79.855L80.8463 8.66129L81.4088 10.7763H81.4463C81.4463 10.7763 81.6338 9.90129 82.0263 8.66129L83.1488 5.17879H86.0863L82.9413 13.8288H79.6963L76.6713 5.17879ZM93.3613 10.9813C93.3613 11.3938 93.4863 11.6063 93.7925 11.6063C93.9846 11.5963 94.1712 11.5383 94.335 11.4375V13.5725C93.9225 13.8725 93.53 13.985 92.8375 13.985C91.6775 13.985 91.0413 13.46 90.7038 12.6175C90.2038 13.5175 89.45 14.0225 88.2038 14.0225C86.6125 14.0225 85.62 13.085 85.62 11.6075C85.62 9.75379 86.9475 8.82004 89.55 8.82004H90.43V8.24004C90.43 7.67754 90.2425 7.28504 89.7 7.28504C89.175 7.28504 88.9325 7.60379 88.895 8.31504L86.0125 7.86504C86.18 6.08629 87.5663 4.96504 89.7938 4.96504C92.265 4.96504 93.35 6.05254 93.35 7.94254L93.3613 10.9813ZM90.4413 10.3638H90.0463C88.9613 10.3638 88.5875 10.7013 88.5875 11.2638C88.5875 11.6763 88.8675 11.9938 89.3925 11.9938C89.8988 11.9938 90.4425 11.7438 90.4425 10.9275L90.4413 10.3638ZM100.716 8.58629C100.36 8.45504 100.156 8.36129 99.6663 8.36129C98.9563 8.36129 98.095 8.64129 98.095 10.1775V13.8275H95.095V5.17754H97.6788L97.9788 7.31254C98.2225 5.87004 99.4413 5.17754 100.919 5.17754L100.716 8.58629ZM107.284 2.25879H110.318V13.8275H107.584L107.304 12.33C106.985 13.49 105.954 14.0525 104.645 14.0525C102.624 14.0525 101.183 12.48 101.183 9.67129C101.183 6.77129 102.558 4.97129 105.001 4.97129C106.108 4.97129 106.985 5.47629 107.284 6.30004V2.25879ZM107.304 8.88379C107.304 7.78004 106.76 7.18129 105.881 7.18129C105.003 7.18129 104.253 7.83629 104.253 9.55879C104.253 10.9813 104.853 11.73 105.843 11.73C106.611 11.73 107.305 11.15 107.305 9.97129L107.304 8.88379ZM50.5038 13.8288V2.80379H53.5738V6.90379H57.355V2.80379H60.425V13.8288H57.355V9.56004H53.5713V13.8288H50.5038Z" fill="#838383"/>
</svg>
