<svg width="145" height="30" viewBox="0 0 145 30" fill="none" xmlns="http://www.w3.org/2000/svg">
<g clip-path="url(#clip0_127_351)">
<path d="M30 0H0V30H30V0Z" fill="#838383"/>
<path d="M14 16.9998L8.80005 7.2998H11.2L14.2 13.3998C14.2 13.4998 14.3 13.5998 14.4 13.6998C14.5 13.7998 14.5 13.8998 14.6 14.0998L14.7 14.1998V14.2998C14.8 14.4998 14.8 14.5998 14.9 14.7998C15 14.8998 15 15.0998 15.1 15.1998C15.2 14.8998 15.4 14.6998 15.5 14.2998C15.6 13.9998 15.8 13.6998 16 13.3998L19 7.2998H21.2L16 17.0998V23.2998H14V16.9998Z" fill="white"/>
<path d="M43.7 5.7998C45.2 5.7998 46.5 6.1998 47.5 6.9998L46.5 8.1998C45.6 7.5998 44.7 7.1998 43.6 7.1998C41.9 7.1998 40.6 8.0998 39.9 9.7998C39.5 10.7998 39.3 12.0998 39.3 13.7998C39.3 15.0998 39.5 16.1998 39.8 16.9998C40.6 18.8998 41.9 19.7998 43.9 19.7998C45 19.7998 46 19.4998 46.9 18.7998L47.9 20.0998C46.6 20.8998 45.2 21.2998 43.7 21.2998C41.9 21.2998 40.4 20.5998 39.2 19.0998C38 17.6998 37.5 15.7998 37.5 13.4998C37.5 11.1998 38.1 9.3998 39.3 7.8998C40.4 6.5998 41.9 5.7998 43.7 5.7998Z" fill="#838383"/>
<path d="M49.4 15.7004C49.4 13.9004 49.8 12.5004 50.7 11.5004C51.6 10.5004 52.7 9.90039 54.1 9.90039C55.7 9.90039 57 10.5004 57.9 11.8004C58.6 12.8004 58.9 14.2004 58.9 15.9004C58.9 17.9004 58.3 19.5004 57.2 20.5004C56.4 21.2004 55.4 21.6004 54.2 21.6004C52.7 21.6004 51.6 21.1004 50.7 20.0004C49.8 19.0004 49.4 17.5004 49.4 15.7004ZM56.4 12.8004C55.9 11.9004 55.2 11.4004 54.1 11.4004C53 11.4004 52.3 11.8004 51.8 12.6004C51.4 13.2004 51.3 14.2004 51.3 15.5004C51.3 17.2004 51.5 18.4004 52 19.1004C52.5 19.8004 53.2 20.2004 54.2 20.2004C55.4 20.2004 56.2 19.6004 56.6 18.5004C56.8 17.9004 56.9 17.1004 56.9 16.1004C57 14.6004 56.8 13.5004 56.4 12.8004Z" fill="#838383"/>
<path d="M62.0999 13.0004C62.0999 11.9004 62 11.0004 61.7 10.3004L63.4 9.90039C63.7 10.4004 63.7999 11.0004 63.7999 11.5004V11.6004C64.1999 11.2004 64.5999 10.8004 65.1999 10.5004C65.8999 10.1004 66.4999 9.90039 67.0999 9.90039C67.9999 9.90039 68.8 10.3004 69.3 11.0004C69.4 11.2004 69.5999 11.5004 69.6999 11.7004C70.8999 10.5004 71.9999 9.90039 73.1999 9.90039C73.9999 9.90039 74.6999 10.2004 75.1999 10.7004C75.6999 11.3004 76 12.0004 76 12.8004V21.1004H74.1999V12.9004C74.1999 11.8004 73.7 11.3004 72.8 11.3004C72.3 11.3004 71.6999 11.5004 71.1999 11.9004C70.9999 12.1004 70.5999 12.4004 70.0999 12.8004L69.9 13.0004V21.1004H68V13.3004C68 12.6004 67.8999 12.1004 67.6999 11.9004C67.3999 11.6004 67.0999 11.5004 66.5999 11.5004C65.7999 11.5004 64.8999 12.0004 63.7999 13.0004V21.2004H62.0999V13.0004Z" fill="#838383"/>
<path d="M79.1 5.4L80.9 5C81.1 5.8 81.2 6.7 81.2 7.8V10.3C81.2 10.9 81.2 11.3 81.2 11.5C82.2 10.5 83.3 10 84.4 10C85.7 10 86.8 10.5 87.5 11.5C88.3 12.5 88.7 13.9 88.7 15.6C88.7 17.4 88.3 18.8 87.5 19.9C86.7 21 85.6 21.5 84.3 21.5C83.7 21.5 83.2 21.4 82.6 21.1C82 20.8 81.6 20.5 81.3 20.1C81.2 20.6 81.1 21 81 21.3H79.3C79.5 20.8 79.6 19.9 79.6 18.5V8C79.5 6.8 79.4 5.9 79.1 5.4ZM82 12.2C81.7 12.4 81.4 12.7 81.2 13V18.7C81.9 19.6 82.8 20 83.9 20C84.8 20 85.5 19.7 85.9 19C86.4 18.2 86.7 17.1 86.7 15.5C86.7 14.1 86.5 13.1 86 12.5C85.6 11.9 84.9 11.6 83.9 11.6C83.3 11.5 82.6 11.7 82 12.2Z" fill="#838383"/>
<path d="M91.3 6.80039C91.3 6.40039 91.4 6.10039 91.7 5.80039C92 5.50039 92.3 5.40039 92.7 5.40039C93.1 5.40039 93.4 5.50039 93.7 5.80039C94 6.10039 94.1 6.40039 94.1 6.80039C94.1 7.20039 94 7.50039 93.7 7.80039C93.4 8.10039 93.1 8.20039 92.7 8.20039C92.3 8.20039 92 8.10039 91.7 7.80039C91.4 7.50039 91.3 7.20039 91.3 6.80039ZM91.7 21.2004V10.2004L93.5 9.90039V21.2004H91.7Z" fill="#838383"/>
<path d="M97.4 13.0004C97.4 12.2004 97.4 11.7004 97.3 11.5004C97.3 11.2004 97.1 10.9004 96.9 10.4004L98.6 9.90039C98.9 10.5004 99 11.0004 99 11.6004C100.1 10.5004 101.3 9.90039 102.5 9.90039C103.1 9.90039 103.6 10.0004 104.1 10.3004C104.6 10.6004 105 11.0004 105.2 11.5004C105.4 11.9004 105.5 12.3004 105.5 12.8004V21.2004H103.8V13.7004C103.8 12.8004 103.7 12.2004 103.4 11.9004C103.1 11.6004 102.7 11.4004 102.2 11.4004C101.8 11.4004 101.2 11.6004 100.6 11.9004C100 12.2004 99.5 12.6004 99.1 13.0004V21.2004H97.4V13.0004Z" fill="#838383"/>
<path d="M109.5 12.6004L108.6 11.4004C110.1 10.4004 111.6 9.90039 113.2 9.90039C114.8 9.90039 115.8 10.5004 116.3 11.6004C116.5 12.0004 116.5 12.6004 116.5 13.5004V14.1004L116.4 17.7004C116.4 17.8004 116.4 18.0004 116.4 18.2004C116.4 18.8004 116.4 19.2004 116.5 19.5004C116.6 19.9004 116.9 20.2004 117.3 20.4004L116.4 21.6004C115.6 21.3004 115.1 20.8004 114.9 20.0004C113.9 21.0004 112.8 21.5004 111.7 21.5004C110.6 21.5004 109.7 21.2004 109 20.6004C108.4 20.1004 108.1 19.3004 108.1 18.3004C108.1 17.0004 108.6 16.1004 109.6 15.4004C110.6 14.7004 112.1 14.4004 113.9 14.4004C114.2 14.4004 114.4 14.4004 114.7 14.4004V13.6004C114.7 12.7004 114.6 12.1004 114.3 11.9004C113.9 11.5004 113.5 11.3004 112.8 11.3004C112.2 11.3004 111.5 11.5004 110.7 11.8004C110.4 12.0004 110 12.3004 109.5 12.6004ZM114.8 18.5004L114.9 15.6004C114.4 15.6004 114.1 15.6004 114 15.6004C112.4 15.6004 111.4 15.9004 110.8 16.5004C110.4 16.9004 110.2 17.5004 110.2 18.3004C110.2 19.6004 110.8 20.3004 112.1 20.3004C113.3 20.2004 114.2 19.6004 114.8 18.5004Z" fill="#838383"/>
<path d="M122.2 10.2H125L124.5 11.6H122.2V18.7C122.2 19.3 122.3 19.7 122.5 20C122.7 20.2 123.1 20.4 123.6 20.4C124 20.4 124.4 20.3 124.7 20.2L124.9 21.3C124.3 21.6 123.7 21.7 123 21.7C121.3 21.7 120.5 20.9 120.5 19.2V11.6H119V10.2H120.4V10C120.4 9.8 120.5 9 120.6 7.7V7.4L122.4 7C122.2 8.2 122.2 9.3 122.2 10.2Z" fill="#838383"/>
<path d="M126.8 15.7004C126.8 13.9004 127.2 12.5004 128.1 11.5004C128.9 10.5004 130.1 9.90039 131.5 9.90039C133.1 9.90039 134.4 10.5004 135.3 11.8004C136 12.8004 136.3 14.2004 136.3 15.9004C136.3 17.9004 135.7 19.5004 134.6 20.5004C133.8 21.2004 132.8 21.6004 131.6 21.6004C130.1 21.6004 129 21.1004 128.1 20.0004C127.3 19.0004 126.8 17.5004 126.8 15.7004ZM133.9 12.8004C133.4 11.9004 132.7 11.4004 131.6 11.4004C130.5 11.4004 129.8 11.8004 129.3 12.6004C128.9 13.2004 128.8 14.2004 128.8 15.5004C128.8 17.2004 129 18.4004 129.5 19.1004C130 19.8004 130.7 20.2004 131.7 20.2004C132.9 20.2004 133.7 19.6004 134.1 18.5004C134.3 17.9004 134.4 17.1004 134.4 16.1004C134.4 14.6004 134.2 13.5004 133.9 12.8004Z" fill="#838383"/>
<path d="M139.6 12.8004C139.6 11.8004 139.5 11.0004 139.2 10.4004L140.9 9.90039C141.2 10.5004 141.3 11.0004 141.3 11.6004V11.8004C142.2 10.6004 143.2 10.0004 144.4 10.0004C144.6 10.0004 144.8 10.0004 145 10.1004L144.3 12.0004C144.1 11.9004 143.9 11.9004 143.8 11.9004C143.4 11.9004 142.9 12.0004 142.5 12.3004C142.1 12.6004 141.7 12.9004 141.5 13.3004C141.4 13.6004 141.3 14.0004 141.3 14.5004V21.4004H139.6V12.8004Z" fill="#838383"/>
</g>
<defs>
<clipPath id="clip0_127_351">
<rect width="145" height="30" fill="white"/>
</clipPath>
</defs>
</svg>
