<svg width="150" height="18" viewBox="0 0 150 18" fill="none" xmlns="http://www.w3.org/2000/svg">
<path d="M19.393 17.1852H24.8714L27.8085 0.375H22.3301L21.2469 6.395H16.4976L17.5808 0.375H12.1024L9.16528 17.1852H14.6437L15.7477 10.8944H20.497L19.393 17.1852Z" fill="#838383"/>
<path d="M30.9123 0.353833L29.2459 9.7067C29.1001 10.4358 29.0376 11.144 29.0376 11.8106C29.0376 16.7682 33.3703 17.5181 35.9741 17.5181C41.4317 17.5181 43.7856 15.7059 44.6396 10.8107L46.4727 0.333008H40.9943L39.432 9.12345C38.9321 11.8731 38.5779 13.3104 36.5366 13.3104C35.2034 13.3104 34.5577 12.6021 34.5577 11.144C34.5577 10.5816 34.641 9.89418 34.8076 9.04013L36.3907 0.333008H30.9123V0.353833Z" fill="#838383"/>
<path d="M75.427 17.1855H80.9054L81.6761 12.8528H84.2591C89.0293 12.8528 91.6747 10.2698 91.6747 5.5621C91.6747 2.25006 89.3834 0.354492 85.3631 0.354492H78.3641L75.427 17.1855ZM83.9675 8.7075H82.3844L83.1134 4.74972H84.5924C85.8006 4.74972 86.4463 5.3538 86.4463 6.45781C86.4463 7.85345 85.5089 8.7075 83.9675 8.7075Z" fill="#838383"/>
<path d="M102.319 0C96.3616 0 92.7996 3.85363 92.7996 10.3319C92.7996 14.8313 95.6325 17.5392 100.382 17.5392C106.339 17.5392 109.901 13.6856 109.901 7.20733C109.922 2.68713 107.089 0 102.319 0ZM100.715 13.1857C99.2987 13.1857 98.4654 12.165 98.4654 10.4569C98.4654 9.81113 98.5279 9.24871 98.6529 8.60297C99.0695 6.39494 99.7778 4.37439 102.007 4.37439C103.423 4.37439 104.256 5.39508 104.256 7.10318C104.256 7.74892 104.194 8.31134 104.069 8.95709C103.652 11.1443 102.944 13.1857 100.715 13.1857Z" fill="#838383"/>
<path d="M128.961 17.1852H134.44L136.606 4.87438H140.73L141.522 0.375H127.503L126.711 4.87438H131.086L128.961 17.1852Z" fill="#838383"/>
<path d="M119.879 6.58242C118.15 6.04083 117.442 5.81169 117.442 4.9993C117.442 4.45771 117.796 3.81197 118.838 3.81197C119.608 3.81197 120.254 4.24941 120.504 4.89515L125.337 3.58283C124.774 1.20816 122.733 0 119.213 0C112.589 0 112.068 4.43688 112.068 5.79086C112.068 8.54048 113.526 10.2277 116.692 11.1026C117.525 11.3318 118.484 11.5817 118.484 12.4983C118.484 13.2273 117.942 13.6856 117.005 13.6856C116.151 13.6856 115.234 13.1857 114.922 12.3108L110.151 13.6023C110.672 16.1019 113.026 17.5184 116.713 17.5184C119.525 17.5184 124.233 16.7685 124.233 11.6859C124.254 9.14456 122.816 7.47813 119.879 6.58242Z" fill="#838383"/>
<path d="M6.10332 17.1852L9.06124 0.375H0V17.1852H6.10332Z" fill="#838383"/>
<path d="M143.876 0.375L140.939 17.1852H150V0.375H143.876Z" fill="#838383"/>
<path d="M53.0134 12.2278H57.617L58.3669 7.99926H53.7633L54.2841 4.8747H60.7207L61.5123 0.354492H49.5972L46.6602 17.1855H52.1386L53.0134 12.2278Z" fill="#838383"/>
<path d="M67.3657 12.2278H71.99L72.7399 7.99926H68.1364L68.6571 4.8747H75.0937L75.8853 0.354492H63.9703L61.0332 17.1855H66.5116L67.3657 12.2278Z" fill="#838383"/>
</svg>
