<svg width="150" height="28" viewBox="0 0 150 28" fill="none" xmlns="http://www.w3.org/2000/svg">
<path d="M0 0H10.9969C13.0915 0 14.6625 0.523662 15.8262 1.39643C17.1063 2.44376 17.8045 3.95656 17.8045 5.81846C17.8045 7.9713 16.9317 9.30954 15.1862 10.1241V10.2405C17.5136 10.9969 18.8518 13.0915 18.8518 15.5935C18.8518 17.9791 17.9209 19.841 16.4081 21.0047C15.128 21.9356 13.4988 22.3429 11.2878 22.3429H0V0ZM9.89139 8.7277C11.0551 8.7277 11.9279 8.08767 11.9279 6.74942C11.9279 5.46936 11.0551 4.82933 9.8332 4.82933H6.0512V8.66951H9.89139V8.7277ZM10.415 17.3972C11.7533 17.3972 12.7424 16.5826 12.7424 15.128C12.7424 13.557 11.6951 12.8588 10.415 12.8588H6.10939V17.4554H10.415V17.3972Z" fill="#838383"/>
<path d="M19.8409 0H25.6012V22.4011H19.8409V0Z" fill="#838383"/>
<path d="M26.7649 14.4299C26.7649 9.36787 30.0232 5.99316 35.0853 5.99316C40.1474 5.99316 43.3475 9.42606 43.3475 14.4299C43.3475 19.492 40.1474 22.8667 35.0853 22.8667C30.0232 22.8667 26.7649 19.492 26.7649 14.4299ZM37.5872 14.4299C37.5872 11.6371 36.7145 9.89154 34.9689 9.89154C33.2234 9.89154 32.4088 11.6371 32.4088 14.4299C32.4088 17.2228 33.2234 19.0265 34.9689 19.0265C36.7145 18.9683 37.5872 17.2228 37.5872 14.4299Z" fill="#838383"/>
<path d="M43.9875 14.4299C43.9875 9.36787 47.2459 5.99316 52.3079 5.99316C57.37 5.99316 60.512 9.36787 60.512 14.4299C60.512 19.492 57.3118 22.8667 52.2498 22.8667C47.2459 22.8667 43.9875 19.492 43.9875 14.4299ZM54.8099 14.4299C54.8099 11.6371 53.9371 9.89154 52.1916 9.89154C50.446 9.89154 49.6315 11.6371 49.6315 14.4299C49.6315 17.2228 50.446 19.0265 52.1916 19.0265C53.9371 18.9683 54.8099 17.2228 54.8099 14.4299Z" fill="#838383"/>
<path d="M61.6758 6.40005H67.0288V8.78562H67.1451C68.1925 6.92371 69.6471 5.93457 71.9745 5.93457C74.0109 5.93457 75.5237 6.92371 76.2801 8.66925H76.3965C77.6766 6.5746 79.3639 5.93457 81.3422 5.93457C85.066 5.93457 86.637 8.66925 86.637 12.3349V22.3426H81.0513V13.324C81.0513 11.6948 80.5276 10.6475 79.1312 10.6475C77.7347 10.6475 77.0365 11.9276 77.0365 13.6731V22.3426H71.4508V13.324C71.4508 11.6948 70.9271 10.6475 69.5307 10.6475C68.1343 10.6475 67.4361 11.9276 67.4361 13.6731V22.3426H61.6758V6.40005Z" fill="#838383"/>
<path d="M93.6773 20.2483H93.6191V22.3429H88.2661V0H93.8518V8.02948H93.9682C95.0155 6.63305 96.4701 5.87665 98.5066 5.87665C102.521 5.87665 104.849 9.4841 104.849 14.3134C104.849 19.7246 102.347 22.8666 98.1575 22.8666C96.412 22.8666 94.6082 22.052 93.6773 20.2483ZM99.0884 14.2552C99.0884 11.6951 98.1575 10.0078 96.4701 10.0078C94.7246 10.0078 93.6773 11.6951 93.6773 14.2552C93.6773 16.8154 94.7828 18.5027 96.4701 18.5027C98.1575 18.5027 99.0884 16.8735 99.0884 14.2552Z" fill="#838383"/>
<path d="M105.489 14.3713C105.489 9.36746 108.805 5.93457 113.576 5.93457C115.962 5.93457 117.766 6.69097 119.162 8.02922C121.024 9.83294 121.839 12.6258 121.78 15.8841H111.074C111.307 17.8624 112.238 18.9097 113.926 18.9097C114.915 18.9097 115.787 18.4443 116.137 17.3969H121.548C120.617 21.0626 117.766 22.8663 113.751 22.8663C108.805 22.8081 105.489 19.4334 105.489 14.3713ZM111.074 12.684H116.195C116.078 10.7639 115.031 9.77476 113.693 9.77476C112.122 9.71657 111.249 10.8221 111.074 12.684Z" fill="#838383"/>
<path d="M128.123 9.13457H128.239C129.403 6.92355 130.915 6.05078 132.836 6.05078C133.301 6.05078 133.592 6.10897 133.767 6.22534V11.1128H133.65C130.334 10.531 128.414 12.102 128.414 15.7094V22.4007H122.77V6.39989H128.123V9.13457Z" fill="#838383"/>
<path d="M134.348 22.4014H139.759C139.992 23.0996 140.69 23.7396 142.029 23.7396C143.832 23.7396 144.472 22.6341 144.472 20.9468V19.7831H144.356C143.483 20.8304 142.261 21.5868 140.516 21.5868C137.083 21.5868 134.057 19.0267 134.057 14.0228C134.057 9.42622 136.501 5.87695 140.225 5.87695C142.378 5.87695 143.658 6.74972 144.531 8.08797H144.647V6.34243H150V20.1904C150 22.7505 149.127 24.7288 147.789 25.8925C146.393 27.1143 144.414 27.638 142.145 27.638C137.839 27.6962 134.872 25.9507 134.348 22.4014ZM144.705 13.7901C144.705 11.8118 143.774 10.1826 142.145 10.1826C140.574 10.1826 139.585 11.579 139.585 13.7901C139.585 15.9429 140.574 17.4557 142.145 17.4557C143.716 17.4557 144.705 15.8847 144.705 13.7901Z" fill="#838383"/>
</svg>
